solid OpenSCAD_Model
  facet normal -1 0 0
    outer loop
      vertex -2.5 -15 -4.5
      vertex -2.5 0 4.5
      vertex -2.5 0 -4.5
    endloop
  endfacet
  facet normal -1 -0 0
    outer loop
      vertex -2.5 0 4.5
      vertex -2.5 -15 -4.5
      vertex -2.5 -15 4.5
    endloop
  endfacet
  facet normal 0 0 1
    outer loop
      vertex 2.5 0 4.5
      vertex -2.5 0 4.5
      vertex 2.5 -15 4.5
    endloop
  endfacet
  facet normal -0 0 1
    outer loop
      vertex 2.5 -15 4.5
      vertex 17.5 -18 4.5
      vertex 17.5 -15 4.5
    endloop
  endfacet
  facet normal 0 0 1
    outer loop
      vertex -2.5 -15 4.5
      vertex 2.5 -15 4.5
      vertex -2.5 0 4.5
    endloop
  endfacet
  facet normal -0 0 1
    outer loop
      vertex -2.5 -15 4.5
      vertex 17.5 -18 4.5
      vertex 2.5 -15 4.5
    endloop
  endfacet
  facet normal 0 0 1
    outer loop
      vertex -17.5 -18 4.5
      vertex -2.5 -15 4.5
      vertex -17.5 -15 4.5
    endloop
  endfacet
  facet normal 0 0 1
    outer loop
      vertex -2.5 -15 4.5
      vertex -17.5 -18 4.5
      vertex 17.5 -18 4.5
    endloop
  endfacet
  facet normal 1 -0 0
    outer loop
      vertex 2.5 -15 4.5
      vertex 2.5 0 -4.5
      vertex 2.5 0 4.5
    endloop
  endfacet
  facet normal 1 0 0
    outer loop
      vertex 2.5 0 -4.5
      vertex 2.5 -15 4.5
      vertex 2.5 -15 -4.5
    endloop
  endfacet
  facet normal 0 0 -1
    outer loop
      vertex 17.5 -18 -4.5
      vertex 2.5 -15 -4.5
      vertex 17.5 -15 -4.5
    endloop
  endfacet
  facet normal 0 0 -1
    outer loop
      vertex 2.5 -15 -4.5
      vertex -2.5 -15 -4.5
      vertex 2.5 0 -4.5
    endloop
  endfacet
  facet normal 0 0 -1
    outer loop
      vertex 17.5 -18 -4.5
      vertex -2.5 -15 -4.5
      vertex 2.5 -15 -4.5
    endloop
  endfacet
  facet normal 0 0 -1
    outer loop
      vertex -17.5 -18 -4.5
      vertex -2.5 -15 -4.5
      vertex 17.5 -18 -4.5
    endloop
  endfacet
  facet normal -0 0 -1
    outer loop
      vertex -2.5 -15 -4.5
      vertex -17.5 -18 -4.5
      vertex -17.5 -15 -4.5
    endloop
  endfacet
  facet normal -0 0 -1
    outer loop
      vertex 2.5 0 -4.5
      vertex -2.5 -15 -4.5
      vertex -2.5 0 -4.5
    endloop
  endfacet
  facet normal 0 1 -0
    outer loop
      vertex 17.5 -15 -4.5
      vertex 2.5 -15 4.5
      vertex 17.5 -15 4.5
    endloop
  endfacet
  facet normal 0 1 0
    outer loop
      vertex 2.5 -15 4.5
      vertex 17.5 -15 -4.5
      vertex 2.5 -15 -4.5
    endloop
  endfacet
  facet normal 0 1 -0
    outer loop
      vertex -2.5 -15 -4.5
      vertex -17.5 -15 4.5
      vertex -2.5 -15 4.5
    endloop
  endfacet
  facet normal 0 1 0
    outer loop
      vertex -17.5 -15 4.5
      vertex -2.5 -15 -4.5
      vertex -17.5 -15 -4.5
    endloop
  endfacet
  facet normal 0 1 0
    outer loop
      vertex 2.5 0 4.5
      vertex 0.113023 0 1.79645
      vertex -2.5 0 4.5
    endloop
  endfacet
  facet normal 0 1 0
    outer loop
      vertex 2.5 0 4.5
      vertex 0.337286 0 1.76812
      vertex 0.113023 0 1.79645
    endloop
  endfacet
  facet normal 0 1 0
    outer loop
      vertex 2.5 0 4.5
      vertex 0.556231 0 1.7119
      vertex 0.337286 0 1.76812
    endloop
  endfacet
  facet normal 0 1 0
    outer loop
      vertex 2.5 0 4.5
      vertex 0.766402 0 1.62869
      vertex 0.556231 0 1.7119
    endloop
  endfacet
  facet normal 0 1 0
    outer loop
      vertex 2.5 0 4.5
      vertex 0.964488 0 1.51979
      vertex 0.766402 0 1.62869
    endloop
  endfacet
  facet normal 0 1 0
    outer loop
      vertex 2.5 0 4.5
      vertex 1.14736 0 1.38692
      vertex 0.964488 0 1.51979
    endloop
  endfacet
  facet normal 0 1 0
    outer loop
      vertex 2.5 0 4.5
      vertex 1.31214 0 1.23218
      vertex 1.14736 0 1.38692
    endloop
  endfacet
  facet normal 0 1 0
    outer loop
      vertex 2.5 0 4.5
      vertex 1.45623 0 1.05801
      vertex 1.31214 0 1.23218
    endloop
  endfacet
  facet normal 0 1 0
    outer loop
      vertex 2.5 0 4.5
      vertex 1.57735 0 0.867156
      vertex 1.45623 0 1.05801
    endloop
  endfacet
  facet normal 0 1 0
    outer loop
      vertex 2.5 0 4.5
      vertex 1.6736 0 0.662623
      vertex 1.57735 0 0.867156
    endloop
  endfacet
  facet normal 0 1 0
    outer loop
      vertex 2.5 0 4.5
      vertex 1.74345 0 0.447641
      vertex 1.6736 0 0.662623
    endloop
  endfacet
  facet normal 0 1 0
    outer loop
      vertex 2.5 0 4.5
      vertex 1.78581 0 0.225599
      vertex 1.74345 0 0.447641
    endloop
  endfacet
  facet normal 0 1 0
    outer loop
      vertex 2.5 0 4.5
      vertex 1.8 0 0
      vertex 1.78581 0 0.225599
    endloop
  endfacet
  facet normal 0 1 -0
    outer loop
      vertex 2.5 0 -4.5
      vertex 1.8 0 0
      vertex 2.5 0 4.5
    endloop
  endfacet
  facet normal 0 1 0
    outer loop
      vertex 0.113023 0 -1.79645
      vertex 2.5 0 -4.5
      vertex -0.113023 0 -1.79645
    endloop
  endfacet
  facet normal 0 1 0
    outer loop
      vertex 0.337286 0 -1.76812
      vertex 2.5 0 -4.5
      vertex 0.113023 0 -1.79645
    endloop
  endfacet
  facet normal 0 1 0
    outer loop
      vertex 0.556231 0 -1.7119
      vertex 2.5 0 -4.5
      vertex 0.337286 0 -1.76812
    endloop
  endfacet
  facet normal 0 1 0
    outer loop
      vertex 0.766402 0 -1.62869
      vertex 2.5 0 -4.5
      vertex 0.556231 0 -1.7119
    endloop
  endfacet
  facet normal 0 1 0
    outer loop
      vertex 0.964488 0 -1.51979
      vertex 2.5 0 -4.5
      vertex 0.766402 0 -1.62869
    endloop
  endfacet
  facet normal 0 1 0
    outer loop
      vertex 1.14736 0 -1.38692
      vertex 2.5 0 -4.5
      vertex 0.964488 0 -1.51979
    endloop
  endfacet
  facet normal 0 1 0
    outer loop
      vertex 1.31214 0 -1.23218
      vertex 2.5 0 -4.5
      vertex 1.14736 0 -1.38692
    endloop
  endfacet
  facet normal 0 1 0
    outer loop
      vertex 1.45623 0 -1.05801
      vertex 2.5 0 -4.5
      vertex 1.31214 0 -1.23218
    endloop
  endfacet
  facet normal 0 1 0
    outer loop
      vertex 1.57735 0 -0.867156
      vertex 2.5 0 -4.5
      vertex 1.45623 0 -1.05801
    endloop
  endfacet
  facet normal 0 1 0
    outer loop
      vertex 1.6736 0 -0.662623
      vertex 2.5 0 -4.5
      vertex 1.57735 0 -0.867156
    endloop
  endfacet
  facet normal 0 1 0
    outer loop
      vertex 1.74345 0 -0.447641
      vertex 2.5 0 -4.5
      vertex 1.6736 0 -0.662623
    endloop
  endfacet
  facet normal 0 1 0
    outer loop
      vertex 1.78581 0 -0.225599
      vertex 2.5 0 -4.5
      vertex 1.74345 0 -0.447641
    endloop
  endfacet
  facet normal 0 1 0
    outer loop
      vertex 1.8 0 0
      vertex 2.5 0 -4.5
      vertex 1.78581 0 -0.225599
    endloop
  endfacet
  facet normal 0 1 -0
    outer loop
      vertex -0.113023 0 1.79645
      vertex -2.5 0 4.5
      vertex 0.113023 0 1.79645
    endloop
  endfacet
  facet normal 0 1 -0
    outer loop
      vertex -0.337286 0 1.76812
      vertex -2.5 0 4.5
      vertex -0.113023 0 1.79645
    endloop
  endfacet
  facet normal 0 1 -0
    outer loop
      vertex -0.556231 0 1.7119
      vertex -2.5 0 4.5
      vertex -0.337286 0 1.76812
    endloop
  endfacet
  facet normal 0 1 -0
    outer loop
      vertex -0.766402 0 1.62869
      vertex -2.5 0 4.5
      vertex -0.556231 0 1.7119
    endloop
  endfacet
  facet normal 0 1 -0
    outer loop
      vertex -0.964488 0 1.51979
      vertex -2.5 0 4.5
      vertex -0.766402 0 1.62869
    endloop
  endfacet
  facet normal 0 1 -0
    outer loop
      vertex -1.14736 0 1.38692
      vertex -2.5 0 4.5
      vertex -0.964488 0 1.51979
    endloop
  endfacet
  facet normal 0 1 -0
    outer loop
      vertex -1.31214 0 1.23218
      vertex -2.5 0 4.5
      vertex -1.14736 0 1.38692
    endloop
  endfacet
  facet normal 0 1 -0
    outer loop
      vertex -1.45623 0 1.05801
      vertex -2.5 0 4.5
      vertex -1.31214 0 1.23218
    endloop
  endfacet
  facet normal 0 1 -0
    outer loop
      vertex -1.57735 0 0.867156
      vertex -2.5 0 4.5
      vertex -1.45623 0 1.05801
    endloop
  endfacet
  facet normal 0 1 -0
    outer loop
      vertex -1.6736 0 0.662623
      vertex -2.5 0 4.5
      vertex -1.57735 0 0.867156
    endloop
  endfacet
  facet normal 0 1 -0
    outer loop
      vertex -1.74345 0 0.447641
      vertex -2.5 0 4.5
      vertex -1.6736 0 0.662623
    endloop
  endfacet
  facet normal 0 1 -0
    outer loop
      vertex -1.78581 0 0.225599
      vertex -2.5 0 4.5
      vertex -1.74345 0 0.447641
    endloop
  endfacet
  facet normal 0 1 -0
    outer loop
      vertex -1.8 0 0
      vertex -2.5 0 4.5
      vertex -1.78581 0 0.225599
    endloop
  endfacet
  facet normal 0 1 0
    outer loop
      vertex -2.5 0 -4.5
      vertex -1.8 0 0
      vertex -1.78581 0 -0.225599
    endloop
  endfacet
  facet normal 0 1 0
    outer loop
      vertex -2.5 0 -4.5
      vertex -0.113023 0 -1.79645
      vertex 2.5 0 -4.5
    endloop
  endfacet
  facet normal 0 1 0
    outer loop
      vertex -0.113023 0 -1.79645
      vertex -2.5 0 -4.5
      vertex -0.337286 0 -1.76812
    endloop
  endfacet
  facet normal 0 1 0
    outer loop
      vertex -0.337286 0 -1.76812
      vertex -2.5 0 -4.5
      vertex -0.556231 0 -1.7119
    endloop
  endfacet
  facet normal 0 1 0
    outer loop
      vertex -0.556231 0 -1.7119
      vertex -2.5 0 -4.5
      vertex -0.766402 0 -1.62869
    endloop
  endfacet
  facet normal 0 1 0
    outer loop
      vertex -0.766402 0 -1.62869
      vertex -2.5 0 -4.5
      vertex -0.964488 0 -1.51979
    endloop
  endfacet
  facet normal 0 1 0
    outer loop
      vertex -1.8 0 0
      vertex -2.5 0 -4.5
      vertex -2.5 0 4.5
    endloop
  endfacet
  facet normal 0 1 0
    outer loop
      vertex -1.74345 0 -0.447641
      vertex -2.5 0 -4.5
      vertex -1.78581 0 -0.225599
    endloop
  endfacet
  facet normal 0 1 0
    outer loop
      vertex -1.6736 0 -0.662623
      vertex -2.5 0 -4.5
      vertex -1.74345 0 -0.447641
    endloop
  endfacet
  facet normal 0 1 0
    outer loop
      vertex -1.57735 0 -0.867156
      vertex -2.5 0 -4.5
      vertex -1.6736 0 -0.662623
    endloop
  endfacet
  facet normal 0 1 0
    outer loop
      vertex -1.45623 0 -1.05801
      vertex -2.5 0 -4.5
      vertex -1.57735 0 -0.867156
    endloop
  endfacet
  facet normal 0 1 0
    outer loop
      vertex -1.31214 0 -1.23218
      vertex -2.5 0 -4.5
      vertex -1.45623 0 -1.05801
    endloop
  endfacet
  facet normal 0 1 0
    outer loop
      vertex -1.14736 0 -1.38692
      vertex -2.5 0 -4.5
      vertex -1.31214 0 -1.23218
    endloop
  endfacet
  facet normal 0 1 0
    outer loop
      vertex -0.964488 0 -1.51979
      vertex -2.5 0 -4.5
      vertex -1.14736 0 -1.38692
    endloop
  endfacet
  facet normal -1 0 0
    outer loop
      vertex -17.5 -18 -4.5
      vertex -17.5 -15 4.5
      vertex -17.5 -15 -4.5
    endloop
  endfacet
  facet normal -1 -0 0
    outer loop
      vertex -17.5 -15 4.5
      vertex -17.5 -18 -4.5
      vertex -17.5 -18 4.5
    endloop
  endfacet
  facet normal 1 -0 0
    outer loop
      vertex 17.5 -18 4.5
      vertex 17.5 -15 -4.5
      vertex 17.5 -15 4.5
    endloop
  endfacet
  facet normal 1 0 0
    outer loop
      vertex 17.5 -15 -4.5
      vertex 17.5 -18 4.5
      vertex 17.5 -18 -4.5
    endloop
  endfacet
  facet normal 0 -1 0
    outer loop
      vertex -17.5 -18 4.5
      vertex -1.8 -18 3
      vertex 17.5 -18 4.5
    endloop
  endfacet
  facet normal 0 -1 0
    outer loop
      vertex -3.46199 -18 0
      vertex -1.8 -18 3
      vertex -17.5 -18 4.5
    endloop
  endfacet
  facet normal 0 -1 -0
    outer loop
      vertex -1.8 -18 3
      vertex -3.46199 -18 0
      vertex -1.8 -18 2.87864
    endloop
  endfacet
  facet normal 0 -1 0
    outer loop
      vertex -17.5 -18 -4.5
      vertex -3.46199 -18 0
      vertex -17.5 -18 4.5
    endloop
  endfacet
  facet normal -0 -1 0
    outer loop
      vertex -1.8 -18 -3
      vertex -3.46199 -18 0
      vertex -17.5 -18 -4.5
    endloop
  endfacet
  facet normal 0 -1 -0
    outer loop
      vertex -1.8 -18 -3
      vertex -17.5 -18 -4.5
      vertex 1.8 -18 -3
    endloop
  endfacet
  facet normal 0 -1 0
    outer loop
      vertex -3.46199 -18 0
      vertex -1.8 -18 -3
      vertex -1.8 -18 -2.87864
    endloop
  endfacet
  facet normal 0 -1 0
    outer loop
      vertex 1.8 -18 3
      vertex 17.5 -18 4.5
      vertex -1.8 -18 3
    endloop
  endfacet
  facet normal 0 -1 0
    outer loop
      vertex 3.46199 -18 0
      vertex 1.8 -18 3
      vertex 1.8 -18 2.87864
    endloop
  endfacet
  facet normal 0 -1 0
    outer loop
      vertex 1.8 -18 3
      vertex 3.46199 -18 0
      vertex 17.5 -18 4.5
    endloop
  endfacet
  facet normal 0 -1 0
    outer loop
      vertex 1.8 -18 -3
      vertex 3.46199 -18 0
      vertex 1.8 -18 -2.87864
    endloop
  endfacet
  facet normal 0 -1 -0
    outer loop
      vertex 3.46199 -18 0
      vertex 1.8 -18 -3
      vertex 17.5 -18 -4.5
    endloop
  endfacet
  facet normal 0 -1 0
    outer loop
      vertex 3.46199 -18 0
      vertex 17.5 -18 -4.5
      vertex 17.5 -18 4.5
    endloop
  endfacet
  facet normal 0 -1 0
    outer loop
      vertex 17.5 -18 -4.5
      vertex 1.8 -18 -3
      vertex -17.5 -18 -4.5
    endloop
  endfacet
  facet normal 0 -1 0
    outer loop
      vertex -1.8 -18 3
      vertex -1.73099 -18 2.99817
      vertex 1.8 -18 3
    endloop
  endfacet
  facet normal -0 -1 0
    outer loop
      vertex -1.73099 -18 2.99817
      vertex -1.8 -18 3
      vertex -1.8 -18 2.87864
    endloop
  endfacet
  facet normal 0 -1 0
    outer loop
      vertex 1.73099 -18 2.99817
      vertex 1.8 -18 3
      vertex -1.73099 -18 2.99817
    endloop
  endfacet
  facet normal 0 -1 -0
    outer loop
      vertex 1.8 -18 3
      vertex 1.73099 -18 2.99817
      vertex 1.8 -18 2.87864
    endloop
  endfacet
  facet normal 0 -1 -0
    outer loop
      vertex -1.73099 -18 -2.99817
      vertex -1.8 -18 -3
      vertex 1.73099 -18 -2.99817
    endloop
  endfacet
  facet normal 0 -1 0
    outer loop
      vertex -1.8 -18 -3
      vertex -1.73099 -18 -2.99817
      vertex -1.8 -18 -2.87864
    endloop
  endfacet
  facet normal 0 -1 0
    outer loop
      vertex 1.73099 -18 -2.99817
      vertex 1.8 -18 -3
      vertex 1.8 -18 -2.87864
    endloop
  endfacet
  facet normal 0 -1 0
    outer loop
      vertex 1.8 -18 -3
      vertex 1.73099 -18 -2.99817
      vertex -1.8 -18 -3
    endloop
  endfacet
  facet normal 1 -0 0
    outer loop
      vertex -1.8 -15.5 2.87864
      vertex -1.8 -15.2 1.8
      vertex -1.8 -15.2 3
    endloop
  endfacet
  facet normal 1 0 0
    outer loop
      vertex -1.8 -15.2 1.8
      vertex -1.8 -15.5 2.87864
      vertex -1.8 -15.2 -1.8
    endloop
  endfacet
  facet normal 1 0 0
    outer loop
      vertex -1.8 -15.5 2.87864
      vertex -1.8 -15.2 3
      vertex -1.8 -15.5 3
    endloop
  endfacet
  facet normal 1 0 0
    outer loop
      vertex -1.8 -15.5 -2.87864
      vertex -1.8 -15.2 -1.8
      vertex -1.8 -15.5 2.87864
    endloop
  endfacet
  facet normal 1 0 0
    outer loop
      vertex -1.8 -15.2 -1.8
      vertex -1.8 -15.5 -2.87864
      vertex -1.8 -15.2 -3
    endloop
  endfacet
  facet normal 1 0 0
    outer loop
      vertex -1.8 -15.2 -3
      vertex -1.8 -15.5 -2.87864
      vertex -1.8 -15.5 -3
    endloop
  endfacet
  facet normal 1 -0 0
    outer loop
      vertex -1.8 -15.2 1.8
      vertex -1.8 -14.9 0
      vertex -1.8 -14.9 1.8
    endloop
  endfacet
  facet normal 1 0 0
    outer loop
      vertex -1.8 -15.2 -1.8
      vertex -1.8 -14.9 0
      vertex -1.8 -15.2 1.8
    endloop
  endfacet
  facet normal 1 0 0
    outer loop
      vertex -1.8 -14.9 0
      vertex -1.8 -15.2 -1.8
      vertex -1.8 -14.9 -1.8
    endloop
  endfacet
  facet normal 0 -1 0
    outer loop
      vertex -1.8 -15.2 1.8
      vertex 1.8 -15.2 3
      vertex -1.8 -15.2 3
    endloop
  endfacet
  facet normal 0 -1 -0
    outer loop
      vertex 1.8 -15.2 3
      vertex -1.8 -15.2 1.8
      vertex 1.8 -15.2 1.8
    endloop
  endfacet
  facet normal 0 -1 0
    outer loop
      vertex -1.8 -15.2 -3
      vertex 1.8 -15.2 -1.8
      vertex -1.8 -15.2 -1.8
    endloop
  endfacet
  facet normal 0 -1 -0
    outer loop
      vertex 1.8 -15.2 -1.8
      vertex -1.8 -15.2 -3
      vertex 1.8 -15.2 -3
    endloop
  endfacet
  facet normal -1 0 0
    outer loop
      vertex 1.8 -15.5 -2.87864
      vertex 1.8 -15.2 -1.8
      vertex 1.8 -15.2 -3
    endloop
  endfacet
  facet normal -1 -0 0
    outer loop
      vertex 1.8 -15.2 -1.8
      vertex 1.8 -15.5 -2.87864
      vertex 1.8 -15.2 1.8
    endloop
  endfacet
  facet normal -1 0 0
    outer loop
      vertex 1.8 -15.5 -2.87864
      vertex 1.8 -15.2 -3
      vertex 1.8 -15.5 -3
    endloop
  endfacet
  facet normal -1 0 0
    outer loop
      vertex 1.8 -15.5 2.87864
      vertex 1.8 -15.2 1.8
      vertex 1.8 -15.5 -2.87864
    endloop
  endfacet
  facet normal -1 0 0
    outer loop
      vertex 1.8 -15.2 1.8
      vertex 1.8 -15.5 2.87864
      vertex 1.8 -15.2 3
    endloop
  endfacet
  facet normal -1 -0 0
    outer loop
      vertex 1.8 -15.2 3
      vertex 1.8 -15.5 2.87864
      vertex 1.8 -15.5 3
    endloop
  endfacet
  facet normal -1 0 0
    outer loop
      vertex 1.8 -15.2 -1.8
      vertex 1.8 -14.9 0
      vertex 1.8 -14.9 -1.8
    endloop
  endfacet
  facet normal -1 0 0
    outer loop
      vertex 1.8 -15.2 1.8
      vertex 1.8 -14.9 0
      vertex 1.8 -15.2 -1.8
    endloop
  endfacet
  facet normal -1 0 0
    outer loop
      vertex 1.8 -14.9 0
      vertex 1.8 -15.2 1.8
      vertex 1.8 -14.9 1.8
    endloop
  endfacet
  facet normal 0 1 0
    outer loop
      vertex 1.8 -15.5 3
      vertex 1.73099 -15.5 2.99817
      vertex -1.8 -15.5 3
    endloop
  endfacet
  facet normal -0 1 0
    outer loop
      vertex 1.73099 -15.5 2.99817
      vertex 1.8 -15.5 3
      vertex 1.8 -15.5 2.87864
    endloop
  endfacet
  facet normal 0 1 -0
    outer loop
      vertex -1.73099 -15.5 2.99817
      vertex -1.8 -15.5 3
      vertex 1.73099 -15.5 2.99817
    endloop
  endfacet
  facet normal 0 1 0
    outer loop
      vertex -1.8 -15.5 3
      vertex -1.73099 -15.5 2.99817
      vertex -1.8 -15.5 2.87864
    endloop
  endfacet
  facet normal 0 -1 -0
    outer loop
      vertex -1.8 -15.5 2.87864
      vertex -3.46199 -15.5 0
      vertex -1.8 -15.5 -2.87864
    endloop
  endfacet
  facet normal 0 1 0
    outer loop
      vertex 1.73099 -15.5 -2.99817
      vertex 1.8 -15.5 -3
      vertex -1.73099 -15.5 -2.99817
    endloop
  endfacet
  facet normal 0 1 -0
    outer loop
      vertex 1.8 -15.5 -3
      vertex 1.73099 -15.5 -2.99817
      vertex 1.8 -15.5 -2.87864
    endloop
  endfacet
  facet normal 0 1 0
    outer loop
      vertex -1.73099 -15.5 -2.99817
      vertex -1.8 -15.5 -3
      vertex -1.8 -15.5 -2.87864
    endloop
  endfacet
  facet normal 0 1 0
    outer loop
      vertex -1.8 -15.5 -3
      vertex -1.73099 -15.5 -2.99817
      vertex 1.8 -15.5 -3
    endloop
  endfacet
  facet normal 0 -1 0
    outer loop
      vertex 1.8 -15.5 2.87864
      vertex 1.8 -15.5 -2.87864
      vertex 3.46199 -15.5 0
    endloop
  endfacet
  facet normal 0 0 -1
    outer loop
      vertex -1.8 -15.5 3
      vertex 1.8 -15.2 3
      vertex 1.8 -15.5 3
    endloop
  endfacet
  facet normal -0 0 -1
    outer loop
      vertex 1.8 -15.2 3
      vertex -1.8 -15.5 3
      vertex -1.8 -15.2 3
    endloop
  endfacet
  facet normal -0 0 1
    outer loop
      vertex -1.8 -15.2 -3
      vertex 1.8 -15.5 -3
      vertex 1.8 -15.2 -3
    endloop
  endfacet
  facet normal 0 0 1
    outer loop
      vertex 1.8 -15.5 -3
      vertex -1.8 -15.2 -3
      vertex -1.8 -15.5 -3
    endloop
  endfacet
  facet normal 0 -1 0
    outer loop
      vertex -1.8 -14.9 1.8
      vertex -0.113023 -14.9 1.79645
      vertex 1.8 -14.9 1.8
    endloop
  endfacet
  facet normal 0 -1 0
    outer loop
      vertex -1.8 -14.9 1.8
      vertex -0.337286 -14.9 1.76812
      vertex -0.113023 -14.9 1.79645
    endloop
  endfacet
  facet normal 0 -1 0
    outer loop
      vertex -1.8 -14.9 1.8
      vertex -0.556231 -14.9 1.7119
      vertex -0.337286 -14.9 1.76812
    endloop
  endfacet
  facet normal 0 -1 0
    outer loop
      vertex -1.8 -14.9 1.8
      vertex -0.766402 -14.9 1.62869
      vertex -0.556231 -14.9 1.7119
    endloop
  endfacet
  facet normal 0 -1 0
    outer loop
      vertex -1.8 -14.9 1.8
      vertex -0.964488 -14.9 1.51979
      vertex -0.766402 -14.9 1.62869
    endloop
  endfacet
  facet normal 0 -1 0
    outer loop
      vertex -1.8 -14.9 1.8
      vertex -1.14736 -14.9 1.38692
      vertex -0.964488 -14.9 1.51979
    endloop
  endfacet
  facet normal 0 -1 0
    outer loop
      vertex -1.8 -14.9 1.8
      vertex -1.31214 -14.9 1.23218
      vertex -1.14736 -14.9 1.38692
    endloop
  endfacet
  facet normal 0 -1 0
    outer loop
      vertex -1.8 -14.9 1.8
      vertex -1.45623 -14.9 1.05801
      vertex -1.31214 -14.9 1.23218
    endloop
  endfacet
  facet normal 0 -1 0
    outer loop
      vertex -1.8 -14.9 1.8
      vertex -1.57735 -14.9 0.867156
      vertex -1.45623 -14.9 1.05801
    endloop
  endfacet
  facet normal 0 -1 0
    outer loop
      vertex -1.8 -14.9 1.8
      vertex -1.6736 -14.9 0.662623
      vertex -1.57735 -14.9 0.867156
    endloop
  endfacet
  facet normal 0 -1 0
    outer loop
      vertex -1.8 -14.9 1.8
      vertex -1.74345 -14.9 0.447641
      vertex -1.6736 -14.9 0.662623
    endloop
  endfacet
  facet normal 0 -1 0
    outer loop
      vertex -1.8 -14.9 1.8
      vertex -1.78581 -14.9 0.225599
      vertex -1.74345 -14.9 0.447641
    endloop
  endfacet
  facet normal -0 -1 0
    outer loop
      vertex -1.78581 -14.9 0.225599
      vertex -1.8 -14.9 1.8
      vertex -1.8 -14.9 0
    endloop
  endfacet
  facet normal 0 -1 0
    outer loop
      vertex 0.113023 -14.9 1.79645
      vertex 1.8 -14.9 1.8
      vertex -0.113023 -14.9 1.79645
    endloop
  endfacet
  facet normal 0 -1 0
    outer loop
      vertex 0.337286 -14.9 1.76812
      vertex 1.8 -14.9 1.8
      vertex 0.113023 -14.9 1.79645
    endloop
  endfacet
  facet normal 0 -1 0
    outer loop
      vertex 0.556231 -14.9 1.7119
      vertex 1.8 -14.9 1.8
      vertex 0.337286 -14.9 1.76812
    endloop
  endfacet
  facet normal 0 -1 0
    outer loop
      vertex 0.766402 -14.9 1.62869
      vertex 1.8 -14.9 1.8
      vertex 0.556231 -14.9 1.7119
    endloop
  endfacet
  facet normal 0 -1 0
    outer loop
      vertex 0.964488 -14.9 1.51979
      vertex 1.8 -14.9 1.8
      vertex 0.766402 -14.9 1.62869
    endloop
  endfacet
  facet normal 0 -1 0
    outer loop
      vertex 1.14736 -14.9 1.38692
      vertex 1.8 -14.9 1.8
      vertex 0.964488 -14.9 1.51979
    endloop
  endfacet
  facet normal 0 -1 0
    outer loop
      vertex 1.31214 -14.9 1.23218
      vertex 1.8 -14.9 1.8
      vertex 1.14736 -14.9 1.38692
    endloop
  endfacet
  facet normal 0 -1 0
    outer loop
      vertex 1.45623 -14.9 1.05801
      vertex 1.8 -14.9 1.8
      vertex 1.31214 -14.9 1.23218
    endloop
  endfacet
  facet normal 0 -1 0
    outer loop
      vertex 1.57735 -14.9 0.867156
      vertex 1.8 -14.9 1.8
      vertex 1.45623 -14.9 1.05801
    endloop
  endfacet
  facet normal 0 -1 0
    outer loop
      vertex 1.6736 -14.9 0.662623
      vertex 1.8 -14.9 1.8
      vertex 1.57735 -14.9 0.867156
    endloop
  endfacet
  facet normal 0 -1 0
    outer loop
      vertex 1.74345 -14.9 0.447641
      vertex 1.8 -14.9 1.8
      vertex 1.6736 -14.9 0.662623
    endloop
  endfacet
  facet normal 0 -1 0
    outer loop
      vertex 1.78581 -14.9 0.225599
      vertex 1.8 -14.9 1.8
      vertex 1.74345 -14.9 0.447641
    endloop
  endfacet
  facet normal 0 -1 -0
    outer loop
      vertex 1.8 -14.9 1.8
      vertex 1.78581 -14.9 0.225599
      vertex 1.8 -14.9 0
    endloop
  endfacet
  facet normal 0 -1 -0
    outer loop
      vertex -0.113023 -14.9 -1.79645
      vertex -1.8 -14.9 -1.8
      vertex 0.113023 -14.9 -1.79645
    endloop
  endfacet
  facet normal 0 -1 -0
    outer loop
      vertex -0.337286 -14.9 -1.76812
      vertex -1.8 -14.9 -1.8
      vertex -0.113023 -14.9 -1.79645
    endloop
  endfacet
  facet normal 0 -1 -0
    outer loop
      vertex -0.556231 -14.9 -1.7119
      vertex -1.8 -14.9 -1.8
      vertex -0.337286 -14.9 -1.76812
    endloop
  endfacet
  facet normal 0 -1 -0
    outer loop
      vertex -0.766402 -14.9 -1.62869
      vertex -1.8 -14.9 -1.8
      vertex -0.556231 -14.9 -1.7119
    endloop
  endfacet
  facet normal 0 -1 -0
    outer loop
      vertex -0.964488 -14.9 -1.51979
      vertex -1.8 -14.9 -1.8
      vertex -0.766402 -14.9 -1.62869
    endloop
  endfacet
  facet normal 0 -1 -0
    outer loop
      vertex -1.14736 -14.9 -1.38692
      vertex -1.8 -14.9 -1.8
      vertex -0.964488 -14.9 -1.51979
    endloop
  endfacet
  facet normal 0 -1 -0
    outer loop
      vertex -1.31214 -14.9 -1.23218
      vertex -1.8 -14.9 -1.8
      vertex -1.14736 -14.9 -1.38692
    endloop
  endfacet
  facet normal 0 -1 -0
    outer loop
      vertex -1.45623 -14.9 -1.05801
      vertex -1.8 -14.9 -1.8
      vertex -1.31214 -14.9 -1.23218
    endloop
  endfacet
  facet normal 0 -1 -0
    outer loop
      vertex -1.57735 -14.9 -0.867156
      vertex -1.8 -14.9 -1.8
      vertex -1.45623 -14.9 -1.05801
    endloop
  endfacet
  facet normal 0 -1 -0
    outer loop
      vertex -1.6736 -14.9 -0.662623
      vertex -1.8 -14.9 -1.8
      vertex -1.57735 -14.9 -0.867156
    endloop
  endfacet
  facet normal 0 -1 -0
    outer loop
      vertex -1.74345 -14.9 -0.447641
      vertex -1.8 -14.9 -1.8
      vertex -1.6736 -14.9 -0.662623
    endloop
  endfacet
  facet normal 0 -1 -0
    outer loop
      vertex -1.78581 -14.9 -0.225599
      vertex -1.8 -14.9 -1.8
      vertex -1.74345 -14.9 -0.447641
    endloop
  endfacet
  facet normal 0 -1 0
    outer loop
      vertex -1.8 -14.9 -1.8
      vertex -1.78581 -14.9 -0.225599
      vertex -1.8 -14.9 0
    endloop
  endfacet
  facet normal 0 -1 0
    outer loop
      vertex 1.78581 -14.9 -0.225599
      vertex 1.8 -14.9 -1.8
      vertex 1.8 -14.9 0
    endloop
  endfacet
  facet normal 0 -1 0
    outer loop
      vertex 1.74345 -14.9 -0.447641
      vertex 1.8 -14.9 -1.8
      vertex 1.78581 -14.9 -0.225599
    endloop
  endfacet
  facet normal 0 -1 0
    outer loop
      vertex 1.6736 -14.9 -0.662623
      vertex 1.8 -14.9 -1.8
      vertex 1.74345 -14.9 -0.447641
    endloop
  endfacet
  facet normal 0 -1 0
    outer loop
      vertex 1.57735 -14.9 -0.867156
      vertex 1.8 -14.9 -1.8
      vertex 1.6736 -14.9 -0.662623
    endloop
  endfacet
  facet normal 0 -1 0
    outer loop
      vertex 1.45623 -14.9 -1.05801
      vertex 1.8 -14.9 -1.8
      vertex 1.57735 -14.9 -0.867156
    endloop
  endfacet
  facet normal 0 -1 0
    outer loop
      vertex 1.31214 -14.9 -1.23218
      vertex 1.8 -14.9 -1.8
      vertex 1.45623 -14.9 -1.05801
    endloop
  endfacet
  facet normal 0 -1 0
    outer loop
      vertex 1.14736 -14.9 -1.38692
      vertex 1.8 -14.9 -1.8
      vertex 1.31214 -14.9 -1.23218
    endloop
  endfacet
  facet normal 0 -1 0
    outer loop
      vertex 0.964488 -14.9 -1.51979
      vertex 1.8 -14.9 -1.8
      vertex 1.14736 -14.9 -1.38692
    endloop
  endfacet
  facet normal 0 -1 0
    outer loop
      vertex 0.766402 -14.9 -1.62869
      vertex 1.8 -14.9 -1.8
      vertex 0.964488 -14.9 -1.51979
    endloop
  endfacet
  facet normal 0 -1 0
    outer loop
      vertex 0.556231 -14.9 -1.7119
      vertex 1.8 -14.9 -1.8
      vertex 0.766402 -14.9 -1.62869
    endloop
  endfacet
  facet normal 0 -1 0
    outer loop
      vertex 0.337286 -14.9 -1.76812
      vertex 1.8 -14.9 -1.8
      vertex 0.556231 -14.9 -1.7119
    endloop
  endfacet
  facet normal 0 -1 0
    outer loop
      vertex 0.113023 -14.9 -1.79645
      vertex 1.8 -14.9 -1.8
      vertex 0.337286 -14.9 -1.76812
    endloop
  endfacet
  facet normal 0 -1 0
    outer loop
      vertex 1.8 -14.9 -1.8
      vertex 0.113023 -14.9 -1.79645
      vertex -1.8 -14.9 -1.8
    endloop
  endfacet
  facet normal -0 0 1
    outer loop
      vertex -1.8 -14.9 -1.8
      vertex 1.8 -15.2 -1.8
      vertex 1.8 -14.9 -1.8
    endloop
  endfacet
  facet normal 0 0 1
    outer loop
      vertex 1.8 -15.2 -1.8
      vertex -1.8 -14.9 -1.8
      vertex -1.8 -15.2 -1.8
    endloop
  endfacet
  facet normal 0 0 -1
    outer loop
      vertex -1.8 -15.2 1.8
      vertex 1.8 -14.9 1.8
      vertex 1.8 -15.2 1.8
    endloop
  endfacet
  facet normal -0 0 -1
    outer loop
      vertex 1.8 -14.9 1.8
      vertex -1.8 -15.2 1.8
      vertex -1.8 -14.9 1.8
    endloop
  endfacet
  facet normal 0 0 -1
    outer loop
      vertex -1.73099 -18 2.99817
      vertex 1.73099 -15.5 2.99817
      vertex 1.73099 -18 2.99817
    endloop
  endfacet
  facet normal -0 0 -1
    outer loop
      vertex 1.73099 -15.5 2.99817
      vertex -1.73099 -18 2.99817
      vertex -1.73099 -15.5 2.99817
    endloop
  endfacet
  facet normal -0.866025 0 -0.500001
    outer loop
      vertex 1.8 -18 2.87864
      vertex 1.8 -15.5 2.87864
      vertex 3.46199 -15.5 0
    endloop
  endfacet
  facet normal -0.866025 0 -0.500001
    outer loop
      vertex 1.8 -18 2.87864
      vertex 3.46199 -15.5 0
      vertex 3.46199 -18 0
    endloop
  endfacet
  facet normal -0.866028 -0 -0.499996
    outer loop
      vertex 1.8 -15.5 2.87864
      vertex 1.8 -18 2.87864
      vertex 1.73099 -15.5 2.99817
    endloop
  endfacet
  facet normal -0.866028 -0 -0.499996
    outer loop
      vertex 1.73099 -15.5 2.99817
      vertex 1.8 -18 2.87864
      vertex 1.73099 -18 2.99817
    endloop
  endfacet
  facet normal 0.866028 0 -0.499996
    outer loop
      vertex -1.8 -18 2.87864
      vertex -1.8 -15.5 2.87864
      vertex -1.73099 -15.5 2.99817
    endloop
  endfacet
  facet normal 0.866028 0 -0.499996
    outer loop
      vertex -1.8 -18 2.87864
      vertex -1.73099 -15.5 2.99817
      vertex -1.73099 -18 2.99817
    endloop
  endfacet
  facet normal 0.866025 0 -0.500001
    outer loop
      vertex -1.8 -15.5 2.87864
      vertex -1.8 -18 2.87864
      vertex -3.46199 -15.5 0
    endloop
  endfacet
  facet normal 0.866025 0 -0.500001
    outer loop
      vertex -3.46199 -15.5 0
      vertex -1.8 -18 2.87864
      vertex -3.46199 -18 0
    endloop
  endfacet
  facet normal 0.866025 -0 0.500001
    outer loop
      vertex -1.8 -18 -2.87864
      vertex -1.8 -15.5 -2.87864
      vertex -3.46199 -15.5 0
    endloop
  endfacet
  facet normal 0.866025 0 0.500001
    outer loop
      vertex -1.8 -18 -2.87864
      vertex -3.46199 -15.5 0
      vertex -3.46199 -18 0
    endloop
  endfacet
  facet normal 0.866028 0 0.499996
    outer loop
      vertex -1.8 -15.5 -2.87864
      vertex -1.8 -18 -2.87864
      vertex -1.73099 -15.5 -2.99817
    endloop
  endfacet
  facet normal 0.866028 0 0.499996
    outer loop
      vertex -1.73099 -15.5 -2.99817
      vertex -1.8 -18 -2.87864
      vertex -1.73099 -18 -2.99817
    endloop
  endfacet
  facet normal -0 0 1
    outer loop
      vertex -1.73099 -15.5 -2.99817
      vertex 1.73099 -18 -2.99817
      vertex 1.73099 -15.5 -2.99817
    endloop
  endfacet
  facet normal 0 0 1
    outer loop
      vertex 1.73099 -18 -2.99817
      vertex -1.73099 -15.5 -2.99817
      vertex -1.73099 -18 -2.99817
    endloop
  endfacet
  facet normal -0.866028 0 0.499996
    outer loop
      vertex 1.8 -18 -2.87864
      vertex 1.8 -15.5 -2.87864
      vertex 1.73099 -15.5 -2.99817
    endloop
  endfacet
  facet normal -0.866028 0 0.499996
    outer loop
      vertex 1.8 -18 -2.87864
      vertex 1.73099 -15.5 -2.99817
      vertex 1.73099 -18 -2.99817
    endloop
  endfacet
  facet normal -0.866025 0 0.500001
    outer loop
      vertex 1.8 -15.5 -2.87864
      vertex 1.8 -18 -2.87864
      vertex 3.46199 -15.5 0
    endloop
  endfacet
  facet normal -0.866025 0 0.500001
    outer loop
      vertex 3.46199 -15.5 0
      vertex 1.8 -18 -2.87864
      vertex 3.46199 -18 0
    endloop
  endfacet
  facet normal -0.844327 0 0.535828
    outer loop
      vertex 1.45623 -14.9 -1.05801
      vertex 1.57735 0 -0.867156
      vertex 1.45623 0 -1.05801
    endloop
  endfacet
  facet normal -0.844327 0 0.535828
    outer loop
      vertex 1.57735 0 -0.867156
      vertex 1.45623 -14.9 -1.05801
      vertex 1.57735 -14.9 -0.867156
    endloop
  endfacet
  facet normal -0.368115 0 0.92978
    outer loop
      vertex 0.556231 0 -1.7119
      vertex 0.766402 -14.9 -1.62869
      vertex 0.766402 0 -1.62869
    endloop
  endfacet
  facet normal -0.368115 0 0.92978
    outer loop
      vertex 0.766402 -14.9 -1.62869
      vertex 0.556231 0 -1.7119
      vertex 0.556231 -14.9 -1.7119
    endloop
  endfacet
  facet normal 0.368115 0 0.92978
    outer loop
      vertex -0.766402 0 -1.62869
      vertex -0.556231 -14.9 -1.7119
      vertex -0.556231 0 -1.7119
    endloop
  endfacet
  facet normal 0.368115 0 0.92978
    outer loop
      vertex -0.556231 -14.9 -1.7119
      vertex -0.766402 0 -1.62869
      vertex -0.766402 -14.9 -1.62869
    endloop
  endfacet
  facet normal 0.90482 -0 0.425794
    outer loop
      vertex -1.6736 -14.9 -0.662623
      vertex -1.57735 0 -0.867156
      vertex -1.6736 0 -0.662623
    endloop
  endfacet
  facet normal 0.90482 0 0.425794
    outer loop
      vertex -1.57735 0 -0.867156
      vertex -1.6736 -14.9 -0.662623
      vertex -1.57735 -14.9 -0.867156
    endloop
  endfacet
  facet normal -0.982285 0 -0.187395
    outer loop
      vertex 1.78581 -14.9 0.225599
      vertex 1.74345 0 0.447641
      vertex 1.78581 0 0.225599
    endloop
  endfacet
  facet normal -0.982285 -0 -0.187395
    outer loop
      vertex 1.74345 0 0.447641
      vertex 1.78581 -14.9 0.225599
      vertex 1.74345 -14.9 0.447641
    endloop
  endfacet
  facet normal -0.982285 0 0.187395
    outer loop
      vertex 1.74345 -14.9 -0.447641
      vertex 1.78581 0 -0.225599
      vertex 1.74345 0 -0.447641
    endloop
  endfacet
  facet normal -0.982285 0 0.187395
    outer loop
      vertex 1.78581 0 -0.225599
      vertex 1.74345 -14.9 -0.447641
      vertex 1.78581 -14.9 -0.225599
    endloop
  endfacet
  facet normal -0.68455 0 0.728966
    outer loop
      vertex 1.14736 0 -1.38692
      vertex 1.31214 -14.9 -1.23218
      vertex 1.31214 0 -1.23218
    endloop
  endfacet
  facet normal -0.68455 0 0.728966
    outer loop
      vertex 1.31214 -14.9 -1.23218
      vertex 1.14736 0 -1.38692
      vertex 1.14736 -14.9 -1.38692
    endloop
  endfacet
  facet normal -0.125329 0 0.992115
    outer loop
      vertex 0.113023 0 -1.79645
      vertex 0.337286 -14.9 -1.76812
      vertex 0.337286 0 -1.76812
    endloop
  endfacet
  facet normal -0.125329 0 0.992115
    outer loop
      vertex 0.337286 -14.9 -1.76812
      vertex 0.113023 0 -1.79645
      vertex 0.113023 -14.9 -1.79645
    endloop
  endfacet
  facet normal -0.587802 0 0.809005
    outer loop
      vertex 0.964488 0 -1.51979
      vertex 1.14736 -14.9 -1.38692
      vertex 1.14736 0 -1.38692
    endloop
  endfacet
  facet normal -0.587802 0 0.809005
    outer loop
      vertex 1.14736 -14.9 -1.38692
      vertex 0.964488 0 -1.51979
      vertex 0.964488 -14.9 -1.51979
    endloop
  endfacet
  facet normal 0.770504 -0 0.637435
    outer loop
      vertex -1.45623 -14.9 -1.05801
      vertex -1.31214 0 -1.23218
      vertex -1.45623 0 -1.05801
    endloop
  endfacet
  facet normal 0.770504 0 0.637435
    outer loop
      vertex -1.31214 0 -1.23218
      vertex -1.45623 -14.9 -1.05801
      vertex -1.31214 -14.9 -1.23218
    endloop
  endfacet
  facet normal 0.248708 0 0.968578
    outer loop
      vertex -0.556231 0 -1.7119
      vertex -0.337286 -14.9 -1.76812
      vertex -0.337286 0 -1.76812
    endloop
  endfacet
  facet normal 0.248708 0 0.968578
    outer loop
      vertex -0.337286 -14.9 -1.76812
      vertex -0.556231 0 -1.7119
      vertex -0.556231 -14.9 -1.7119
    endloop
  endfacet
  facet normal 0.68455 0 0.728966
    outer loop
      vertex -1.31214 0 -1.23218
      vertex -1.14736 -14.9 -1.38692
      vertex -1.14736 0 -1.38692
    endloop
  endfacet
  facet normal 0.68455 0 0.728966
    outer loop
      vertex -1.14736 -14.9 -1.38692
      vertex -1.31214 0 -1.23218
      vertex -1.31214 -14.9 -1.23218
    endloop
  endfacet
  facet normal -0.998028 0 0.0627752
    outer loop
      vertex 1.78581 -14.9 -0.225599
      vertex 1.8 0 0
      vertex 1.78581 0 -0.225599
    endloop
  endfacet
  facet normal -0.998028 0 0.0627752
    outer loop
      vertex 1.8 0 0
      vertex 1.78581 -14.9 -0.225599
      vertex 1.8 -14.9 0
    endloop
  endfacet
  facet normal -0.770504 0 0.637435
    outer loop
      vertex 1.31214 -14.9 -1.23218
      vertex 1.45623 0 -1.05801
      vertex 1.31214 0 -1.23218
    endloop
  endfacet
  facet normal -0.770504 0 0.637435
    outer loop
      vertex 1.45623 0 -1.05801
      vertex 1.31214 -14.9 -1.23218
      vertex 1.45623 -14.9 -1.05801
    endloop
  endfacet
  facet normal -0 0 1
    outer loop
      vertex -0.113023 0 -1.79645
      vertex 0.113023 -14.9 -1.79645
      vertex 0.113023 0 -1.79645
    endloop
  endfacet
  facet normal 0 0 1
    outer loop
      vertex 0.113023 -14.9 -1.79645
      vertex -0.113023 0 -1.79645
      vertex -0.113023 -14.9 -1.79645
    endloop
  endfacet
  facet normal -0.248708 0 0.968578
    outer loop
      vertex 0.337286 0 -1.76812
      vertex 0.556231 -14.9 -1.7119
      vertex 0.556231 0 -1.7119
    endloop
  endfacet
  facet normal -0.248708 0 0.968578
    outer loop
      vertex 0.556231 -14.9 -1.7119
      vertex 0.337286 0 -1.76812
      vertex 0.337286 -14.9 -1.76812
    endloop
  endfacet
  facet normal -0.481758 0 0.876304
    outer loop
      vertex 0.766402 0 -1.62869
      vertex 0.964488 -14.9 -1.51979
      vertex 0.964488 0 -1.51979
    endloop
  endfacet
  facet normal -0.481758 0 0.876304
    outer loop
      vertex 0.964488 -14.9 -1.51979
      vertex 0.766402 0 -1.62869
      vertex 0.766402 -14.9 -1.62869
    endloop
  endfacet
  facet normal 0.998028 -0 0.0627752
    outer loop
      vertex -1.8 -14.9 0
      vertex -1.78581 0 -0.225599
      vertex -1.8 0 0
    endloop
  endfacet
  facet normal 0.998028 0 0.0627752
    outer loop
      vertex -1.78581 0 -0.225599
      vertex -1.8 -14.9 0
      vertex -1.78581 -14.9 -0.225599
    endloop
  endfacet
  facet normal 0.951059 -0 0.309009
    outer loop
      vertex -1.74345 -14.9 -0.447641
      vertex -1.6736 0 -0.662623
      vertex -1.74345 0 -0.447641
    endloop
  endfacet
  facet normal 0.951059 0 0.309009
    outer loop
      vertex -1.6736 0 -0.662623
      vertex -1.74345 -14.9 -0.447641
      vertex -1.6736 -14.9 -0.662623
    endloop
  endfacet
  facet normal 0.844327 -0 0.535828
    outer loop
      vertex -1.57735 -14.9 -0.867156
      vertex -1.45623 0 -1.05801
      vertex -1.57735 0 -0.867156
    endloop
  endfacet
  facet normal 0.844327 0 0.535828
    outer loop
      vertex -1.45623 0 -1.05801
      vertex -1.57735 -14.9 -0.867156
      vertex -1.45623 -14.9 -1.05801
    endloop
  endfacet
  facet normal 0.125329 0 0.992115
    outer loop
      vertex -0.337286 0 -1.76812
      vertex -0.113023 -14.9 -1.79645
      vertex -0.113023 0 -1.79645
    endloop
  endfacet
  facet normal 0.125329 0 0.992115
    outer loop
      vertex -0.113023 -14.9 -1.79645
      vertex -0.337286 0 -1.76812
      vertex -0.337286 -14.9 -1.76812
    endloop
  endfacet
  facet normal 0.587802 0 0.809005
    outer loop
      vertex -1.14736 0 -1.38692
      vertex -0.964488 -14.9 -1.51979
      vertex -0.964488 0 -1.51979
    endloop
  endfacet
  facet normal 0.587802 0 0.809005
    outer loop
      vertex -0.964488 -14.9 -1.51979
      vertex -1.14736 0 -1.38692
      vertex -1.14736 -14.9 -1.38692
    endloop
  endfacet
  facet normal 0.481758 0 0.876304
    outer loop
      vertex -0.964488 0 -1.51979
      vertex -0.766402 -14.9 -1.62869
      vertex -0.766402 0 -1.62869
    endloop
  endfacet
  facet normal 0.481758 0 0.876304
    outer loop
      vertex -0.766402 -14.9 -1.62869
      vertex -0.964488 0 -1.51979
      vertex -0.964488 -14.9 -1.51979
    endloop
  endfacet
  facet normal -0.998028 0 -0.0627752
    outer loop
      vertex 1.8 -14.9 0
      vertex 1.78581 0 0.225599
      vertex 1.8 0 0
    endloop
  endfacet
  facet normal -0.998028 -0 -0.0627752
    outer loop
      vertex 1.78581 0 0.225599
      vertex 1.8 -14.9 0
      vertex 1.78581 -14.9 0.225599
    endloop
  endfacet
  facet normal 0.90482 0 -0.425794
    outer loop
      vertex -1.57735 -14.9 0.867156
      vertex -1.6736 0 0.662623
      vertex -1.57735 0 0.867156
    endloop
  endfacet
  facet normal 0.90482 0 -0.425794
    outer loop
      vertex -1.6736 0 0.662623
      vertex -1.57735 -14.9 0.867156
      vertex -1.6736 -14.9 0.662623
    endloop
  endfacet
  facet normal -0.125329 0 -0.992115
    outer loop
      vertex 0.113023 -14.9 1.79645
      vertex 0.337286 0 1.76812
      vertex 0.337286 -14.9 1.76812
    endloop
  endfacet
  facet normal -0.125329 0 -0.992115
    outer loop
      vertex 0.337286 0 1.76812
      vertex 0.113023 -14.9 1.79645
      vertex 0.113023 0 1.79645
    endloop
  endfacet
  facet normal -0.368115 0 -0.92978
    outer loop
      vertex 0.556231 -14.9 1.7119
      vertex 0.766402 0 1.62869
      vertex 0.766402 -14.9 1.62869
    endloop
  endfacet
  facet normal -0.368115 0 -0.92978
    outer loop
      vertex 0.766402 0 1.62869
      vertex 0.556231 -14.9 1.7119
      vertex 0.556231 0 1.7119
    endloop
  endfacet
  facet normal -0.90482 0 0.425794
    outer loop
      vertex 1.57735 -14.9 -0.867156
      vertex 1.6736 0 -0.662623
      vertex 1.57735 0 -0.867156
    endloop
  endfacet
  facet normal -0.90482 0 0.425794
    outer loop
      vertex 1.6736 0 -0.662623
      vertex 1.57735 -14.9 -0.867156
      vertex 1.6736 -14.9 -0.662623
    endloop
  endfacet
  facet normal -0.951059 0 0.309009
    outer loop
      vertex 1.6736 -14.9 -0.662623
      vertex 1.74345 0 -0.447641
      vertex 1.6736 0 -0.662623
    endloop
  endfacet
  facet normal -0.951059 0 0.309009
    outer loop
      vertex 1.74345 0 -0.447641
      vertex 1.6736 -14.9 -0.662623
      vertex 1.74345 -14.9 -0.447641
    endloop
  endfacet
  facet normal 0.982285 -0 0.187395
    outer loop
      vertex -1.78581 -14.9 -0.225599
      vertex -1.74345 0 -0.447641
      vertex -1.78581 0 -0.225599
    endloop
  endfacet
  facet normal 0.982285 0 0.187395
    outer loop
      vertex -1.74345 0 -0.447641
      vertex -1.78581 -14.9 -0.225599
      vertex -1.74345 -14.9 -0.447641
    endloop
  endfacet
  facet normal -0.90482 0 -0.425794
    outer loop
      vertex 1.6736 -14.9 0.662623
      vertex 1.57735 0 0.867156
      vertex 1.6736 0 0.662623
    endloop
  endfacet
  facet normal -0.90482 -0 -0.425794
    outer loop
      vertex 1.57735 0 0.867156
      vertex 1.6736 -14.9 0.662623
      vertex 1.57735 -14.9 0.867156
    endloop
  endfacet
  facet normal -0.951059 0 -0.309009
    outer loop
      vertex 1.74345 -14.9 0.447641
      vertex 1.6736 0 0.662623
      vertex 1.74345 0 0.447641
    endloop
  endfacet
  facet normal -0.951059 -0 -0.309009
    outer loop
      vertex 1.6736 0 0.662623
      vertex 1.74345 -14.9 0.447641
      vertex 1.6736 -14.9 0.662623
    endloop
  endfacet
  facet normal -0.68455 0 -0.728966
    outer loop
      vertex 1.14736 -14.9 1.38692
      vertex 1.31214 0 1.23218
      vertex 1.31214 -14.9 1.23218
    endloop
  endfacet
  facet normal -0.68455 0 -0.728966
    outer loop
      vertex 1.31214 0 1.23218
      vertex 1.14736 -14.9 1.38692
      vertex 1.14736 0 1.38692
    endloop
  endfacet
  facet normal -0.770504 0 -0.637435
    outer loop
      vertex 1.45623 -14.9 1.05801
      vertex 1.31214 0 1.23218
      vertex 1.45623 0 1.05801
    endloop
  endfacet
  facet normal -0.770504 -0 -0.637435
    outer loop
      vertex 1.31214 0 1.23218
      vertex 1.45623 -14.9 1.05801
      vertex 1.31214 -14.9 1.23218
    endloop
  endfacet
  facet normal 0.248708 0 -0.968578
    outer loop
      vertex -0.556231 -14.9 1.7119
      vertex -0.337286 0 1.76812
      vertex -0.337286 -14.9 1.76812
    endloop
  endfacet
  facet normal 0.248708 0 -0.968578
    outer loop
      vertex -0.337286 0 1.76812
      vertex -0.556231 -14.9 1.7119
      vertex -0.556231 0 1.7119
    endloop
  endfacet
  facet normal 0.998028 0 -0.0627752
    outer loop
      vertex -1.78581 -14.9 0.225599
      vertex -1.8 0 0
      vertex -1.78581 0 0.225599
    endloop
  endfacet
  facet normal 0.998028 0 -0.0627752
    outer loop
      vertex -1.8 0 0
      vertex -1.78581 -14.9 0.225599
      vertex -1.8 -14.9 0
    endloop
  endfacet
  facet normal 0.770504 0 -0.637435
    outer loop
      vertex -1.31214 -14.9 1.23218
      vertex -1.45623 0 1.05801
      vertex -1.31214 0 1.23218
    endloop
  endfacet
  facet normal 0.770504 0 -0.637435
    outer loop
      vertex -1.45623 0 1.05801
      vertex -1.31214 -14.9 1.23218
      vertex -1.45623 -14.9 1.05801
    endloop
  endfacet
  facet normal 0.951059 0 -0.309009
    outer loop
      vertex -1.6736 -14.9 0.662623
      vertex -1.74345 0 0.447641
      vertex -1.6736 0 0.662623
    endloop
  endfacet
  facet normal 0.951059 0 -0.309009
    outer loop
      vertex -1.74345 0 0.447641
      vertex -1.6736 -14.9 0.662623
      vertex -1.74345 -14.9 0.447641
    endloop
  endfacet
  facet normal -0.248708 0 -0.968578
    outer loop
      vertex 0.337286 -14.9 1.76812
      vertex 0.556231 0 1.7119
      vertex 0.556231 -14.9 1.7119
    endloop
  endfacet
  facet normal -0.248708 0 -0.968578
    outer loop
      vertex 0.556231 0 1.7119
      vertex 0.337286 -14.9 1.76812
      vertex 0.337286 0 1.76812
    endloop
  endfacet
  facet normal -0.587802 0 -0.809005
    outer loop
      vertex 0.964488 -14.9 1.51979
      vertex 1.14736 0 1.38692
      vertex 1.14736 -14.9 1.38692
    endloop
  endfacet
  facet normal -0.587802 0 -0.809005
    outer loop
      vertex 1.14736 0 1.38692
      vertex 0.964488 -14.9 1.51979
      vertex 0.964488 0 1.51979
    endloop
  endfacet
  facet normal -0.481758 0 -0.876304
    outer loop
      vertex 0.766402 -14.9 1.62869
      vertex 0.964488 0 1.51979
      vertex 0.964488 -14.9 1.51979
    endloop
  endfacet
  facet normal -0.481758 0 -0.876304
    outer loop
      vertex 0.964488 0 1.51979
      vertex 0.766402 -14.9 1.62869
      vertex 0.766402 0 1.62869
    endloop
  endfacet
  facet normal -0.844327 0 -0.535828
    outer loop
      vertex 1.57735 -14.9 0.867156
      vertex 1.45623 0 1.05801
      vertex 1.57735 0 0.867156
    endloop
  endfacet
  facet normal -0.844327 -0 -0.535828
    outer loop
      vertex 1.45623 0 1.05801
      vertex 1.57735 -14.9 0.867156
      vertex 1.45623 -14.9 1.05801
    endloop
  endfacet
  facet normal 0.587802 0 -0.809005
    outer loop
      vertex -1.14736 -14.9 1.38692
      vertex -0.964488 0 1.51979
      vertex -0.964488 -14.9 1.51979
    endloop
  endfacet
  facet normal 0.587802 0 -0.809005
    outer loop
      vertex -0.964488 0 1.51979
      vertex -1.14736 -14.9 1.38692
      vertex -1.14736 0 1.38692
    endloop
  endfacet
  facet normal 0.481758 0 -0.876304
    outer loop
      vertex -0.964488 -14.9 1.51979
      vertex -0.766402 0 1.62869
      vertex -0.766402 -14.9 1.62869
    endloop
  endfacet
  facet normal 0.481758 0 -0.876304
    outer loop
      vertex -0.766402 0 1.62869
      vertex -0.964488 -14.9 1.51979
      vertex -0.964488 0 1.51979
    endloop
  endfacet
  facet normal 0 0 -1
    outer loop
      vertex -0.113023 -14.9 1.79645
      vertex 0.113023 0 1.79645
      vertex 0.113023 -14.9 1.79645
    endloop
  endfacet
  facet normal -0 0 -1
    outer loop
      vertex 0.113023 0 1.79645
      vertex -0.113023 -14.9 1.79645
      vertex -0.113023 0 1.79645
    endloop
  endfacet
  facet normal 0.844327 0 -0.535828
    outer loop
      vertex -1.45623 -14.9 1.05801
      vertex -1.57735 0 0.867156
      vertex -1.45623 0 1.05801
    endloop
  endfacet
  facet normal 0.844327 0 -0.535828
    outer loop
      vertex -1.57735 0 0.867156
      vertex -1.45623 -14.9 1.05801
      vertex -1.57735 -14.9 0.867156
    endloop
  endfacet
  facet normal 0.68455 0 -0.728966
    outer loop
      vertex -1.31214 -14.9 1.23218
      vertex -1.14736 0 1.38692
      vertex -1.14736 -14.9 1.38692
    endloop
  endfacet
  facet normal 0.68455 0 -0.728966
    outer loop
      vertex -1.14736 0 1.38692
      vertex -1.31214 -14.9 1.23218
      vertex -1.31214 0 1.23218
    endloop
  endfacet
  facet normal 0.982285 0 -0.187395
    outer loop
      vertex -1.74345 -14.9 0.447641
      vertex -1.78581 0 0.225599
      vertex -1.74345 0 0.447641
    endloop
  endfacet
  facet normal 0.982285 0 -0.187395
    outer loop
      vertex -1.78581 0 0.225599
      vertex -1.74345 -14.9 0.447641
      vertex -1.78581 -14.9 0.225599
    endloop
  endfacet
  facet normal 0.368115 0 -0.92978
    outer loop
      vertex -0.766402 -14.9 1.62869
      vertex -0.556231 0 1.7119
      vertex -0.556231 -14.9 1.7119
    endloop
  endfacet
  facet normal 0.368115 0 -0.92978
    outer loop
      vertex -0.556231 0 1.7119
      vertex -0.766402 -14.9 1.62869
      vertex -0.766402 0 1.62869
    endloop
  endfacet
  facet normal 0.125329 0 -0.992115
    outer loop
      vertex -0.337286 -14.9 1.76812
      vertex -0.113023 0 1.79645
      vertex -0.113023 -14.9 1.79645
    endloop
  endfacet
  facet normal 0.125329 0 -0.992115
    outer loop
      vertex -0.113023 0 1.79645
      vertex -0.337286 -14.9 1.76812
      vertex -0.337286 0 1.76812
    endloop
  endfacet
endsolid OpenSCAD_Model
